# xmcd
#
# Track frame offsets:
#	150
#	13409
#	28369
#	41103
#	60650
#	72387
#	86714
#	99626
#	111346
#	124050
#	135857
#	151302
#	163296
#	180216
#	195600
#	207522
#
# Disc length: 2976 seconds
#
# Revision: 0
# Processed by: cddbd v1.4PL0 Copyright (c) Steve Scherf et al.
# Submitted via: dBpowerAMP V4.0
#
DISCID=e80b9e10
DTITLE=The Tremeloes - The Tremeloes
DYEAR=1900
DGENRE=
TTITLE0=Even the bad times are good
TTITLE1=Silence is golden
TTITLE2=Helulé, helulé
TTITLE3=Never win
TTITLE4=Once on a Sunday morning - Cuando Sali de Cuba
TTITLE5=African lullaby
TTITLE6=Hello world
TTITLE7=My little lady
TTITLE8=Here comes my baby
TTITLE9=I like it that way
TTITLE10=Someone, Someone
TTITLE11=And then I kissed her
TTITLE12=Lean on me baby
TTITLE13=St. Tropez
TTITLE14=Me and my life
TTITLE15=Call me number one
EXTD=
EXTT0=
EXTT1=
EXTT2=
EXTT3=
EXTT4=
EXTT5=
EXTT6=
EXTT7=
EXTT8=
EXTT9=
EXTT10=
EXTT11=
EXTT12=
EXTT13=
EXTT14=
EXTT15=
PLAYORDER=
